<svg width="100" height="100" viewBox="0 0 100 100" fill="none" xmlns="http://www.w3.org/2000/svg">
<path d="M19.4443 66.27L21.3359 73.8367C21.8568 75.9195 23.7285 77.3811 25.8758 77.3811H26.3888C28.6899 77.3811 30.5554 79.2467 30.5554 81.5478C30.5554 82.4495 30.8478 83.3267 31.3888 84.0478L36.3681 90.6867C37.7823 92.5722 40.4232 93.025 42.3843 91.7172C44.8207 90.0933 48.1348 91.23 49.0608 94.0083L49.9999 96.8256" stroke="#D9D9D9" stroke-linecap="round"/>
<path d="M36.1111 50L36.173 49.7521C36.7348 47.5051 39.9905 47.7017 40.2778 50L40.7227 53.5596C40.918 55.1216 43.1306 55.2552 43.5124 53.7281L43.5786 53.4634C43.8759 52.2739 45.4926 52.0965 46.041 53.1931C46.5277 54.1665 47.9167 54.1665 48.4034 53.1931L50.5217 48.9565C51.2965 47.4069 53.5811 47.6576 54.0013 49.3385C54.4541 51.1497 56.9916 51.2471 57.5822 49.476L58.1128 47.8836C58.8894 45.5542 62.2661 45.8191 62.67 48.2411L63.8889 55.5555" stroke="#D9D9D9" stroke-linecap="round"/>
<path d="M69.4446 61.1108V38.8886C69.4446 37.3545 70.6885 36.1108 72.2224 36.1108C73.7562 36.1108 75.0001 37.3561 75.0001 38.8902V61.1092C75.0001 62.6436 73.7562 63.8886 72.2224 63.8886C70.6885 63.8886 69.4446 62.6447 69.4446 61.1108Z" stroke="#D9D9D9"/>
<path d="M25 61.1108V38.8886C25 37.3545 26.2437 36.1108 27.7778 36.1108C29.3119 36.1108 30.5556 37.3561 30.5556 38.8902V61.1092C30.5556 62.6436 29.3119 63.8886 27.7778 63.8886C26.2437 63.8886 25 62.6447 25 61.1108Z" stroke="#D9D9D9"/>
<path d="M16.6666 44.4448C17.3799 42.1265 17.1432 39.6563 19.4443 38.8893C20.4734 38.5462 22.2221 38.8893 22.2221 38.8893V61.1115C22.2221 61.1115 20.4734 61.4548 19.4443 61.1115C17.1432 60.3442 17.3799 57.8742 16.6666 55.5559C15.3904 51.4087 15.3904 48.5921 16.6666 44.4448Z" stroke="#D9D9D9"/>
<path d="M83.3223 44.5199C82.6106 42.2329 82.8467 39.7962 80.5501 39.0396C79.5228 38.7012 77.7778 39.0396 77.7778 39.0396V60.9608C77.7778 60.9608 79.5228 61.2992 80.5501 60.9608C82.8467 60.2042 82.6106 57.7675 83.3223 55.4806C84.5962 51.3895 84.5962 48.6111 83.3223 44.5199Z" stroke="#D9D9D9"/>
<path d="M22.2222 33.3335C22.2222 33.3335 23.406 8.3335 49.9999 8.3335C76.5938 8.3335 77.7777 33.3335 77.7777 33.3335" stroke="#D9D9D9" stroke-linecap="round"/>
</svg>
