<svg width="73" height="74" viewBox="0 0 73 74" fill="none" xmlns="http://www.w3.org/2000/svg">
<path d="M26 47.5317C26 47.5317 19.5 47.5316 17.0001 50.5316C15.7253 52.0613 15 53.5403 15 55.5316C15 57.5229 15.5 59.5316 17.0001 60.5316C20.3138 62.7406 23.3266 63.112 27.5 63.0316C28.3651 63.0149 29.3301 62.8756 30.3043 62.6706C34.5541 61.7762 37.2793 57.8511 37.7292 53.5316C37.2609 51.6049 36.0851 49.9069 34.3389 48.9676C34.0668 48.8212 33.7852 48.6743 33.5 48.5317C31.5 47.5317 26 47.5317 26 47.5317Z" fill="#D9D9D9"/>
<path d="M56 13.5316C53.8415 8.4932 42 12.5316 42 12.5316L41.1667 20.5316C41.1667 20.5316 50.3117 26.0134 54 22.5316C56.6182 20.06 57.4179 16.8411 56 13.5316Z" fill="#D9D9D9"/>
<path d="M41.1667 20.5316L42 12.5316C42 12.5316 53.8415 8.4932 56 13.5316C57.4179 16.8411 56.6182 20.06 54 22.5316C50.3117 26.0134 41.1667 20.5316 41.1667 20.5316ZM41.1667 20.5316L37.7292 53.5316M37.7292 53.5316V53.5316C37.2793 57.8511 34.5541 61.7762 30.3043 62.6706C29.3301 62.8756 28.3651 63.0149 27.5 63.0316C23.3266 63.112 20.3138 62.7406 17.0001 60.5316C15.5 59.5316 15 57.5229 15 55.5316C15 53.5403 15.7253 52.0613 17.0001 50.5316C19.5 47.5316 26 47.5317 26 47.5317C26 47.5317 31.5 47.5317 33.5 48.5317C33.7852 48.6743 34.0668 48.8212 34.3389 48.9676C36.0851 49.9069 37.2609 51.6049 37.7292 53.5316V53.5316Z" stroke="#D9D9D9"/>
</svg>
