<svg width="80" height="80" viewBox="0 0 80 80" fill="none" xmlns="http://www.w3.org/2000/svg">
<path d="M38.8036 63C37.1467 61.3431 34.4604 61.3431 32.8036 63C31.1467 64.6569 31.1467 67.3431 32.8036 69C34.4604 70.6569 37.1467 70.6569 38.8036 69C40.4604 67.3431 40.4604 64.6569 38.8036 63Z" fill="#D9D9D9"/>
<path d="M45.8035 41C48.6136 43.4301 48.8035 48.5 47.3035 52C46.4008 54.1063 45.1748 55.5225 43.6648 56.327C51.3035 53.5 53.8036 40.2109 48.3035 36.5C45.5093 34.6147 42.9812 34.3756 39.8035 35.5C38.7264 35.8811 37.7705 36.4427 36.9594 37.1394C37.3514 38.6293 37.7907 40.1115 38.2602 41.5782C38.8401 41.0284 39.4212 40.6911 39.8035 40.5C40.8035 40 44.1195 39.5437 45.8035 41Z" fill="#D9D9D9"/>
<path d="M37.8035 51C37.8035 51 36.2243 48.289 36.3036 46.1875C36.3895 43.9097 37.3232 42.4665 38.2602 41.5782C37.7907 40.1115 37.3514 38.6293 36.9594 37.1394C34.438 39.3052 33.3158 42.7761 34.3035 46.1875C34.9498 48.4197 37.8035 51 37.8035 51Z" fill="#D9D9D9"/>
<path d="M30.8036 41C32.0496 37.8617 33.9982 35.4765 36.0693 33.3122C35.7702 31.8141 35.5328 30.3149 35.3743 28.8223C35.3743 28.8223 30.187 32.1394 29.3036 37.1394C28.7095 40.5021 28.9109 47.3535 30.595 50.6192C29.328 48.0819 29.5895 44.058 30.8036 41Z" fill="#D9D9D9"/>
<path d="M42.8036 5C42.8036 5 38.0319 10.8084 36.3036 16.5C35.1078 20.4377 34.9262 24.6035 35.3743 28.8223C35.3743 28.8223 36.1286 21.7006 37.8035 17.5C39.1311 14.1704 42.3035 9.5 42.3035 9.5C42.3035 9.5 44.048 16.088 42.8036 20C41.4382 24.2923 35.3743 28.8223 35.3743 28.8223C35.5328 30.3149 35.7702 31.8141 36.0693 33.3122C40.1544 29.0434 44.716 25.634 45.3036 19C45.914 12.1069 42.8036 5 42.8036 5Z" fill="#D9D9D9"/>
<path d="M40.3035 74L40.4158 73.5128L40.3035 74ZM36.3036 16.5L35.8251 16.3547L36.3036 16.5ZM42.8036 5L43.2616 4.79952L42.9347 4.05265L42.4172 4.68261L42.8036 5ZM45.3036 19L44.8055 18.9559L45.3036 19ZM30.8036 41L30.3389 40.8155H30.3389L30.8036 41ZM36.3036 56.5L36.157 56.978L36.3036 56.5ZM47.3035 52L46.8439 51.803L47.3035 52ZM45.8035 41L45.4764 41.3782L45.8035 41ZM39.8035 40.5L40.0271 40.9472H40.0271L39.8035 40.5ZM36.3036 46.1875L36.8032 46.2064L36.3036 46.1875ZM37.8035 51L37.4681 51.3709C37.651 51.5362 37.927 51.5436 38.1185 51.3883C38.3099 51.233 38.3596 50.9613 38.2355 50.7483L37.8035 51ZM34.3035 46.1875L33.8232 46.3266L34.3035 46.1875ZM39.8035 35.5L39.9703 35.9714L39.8035 35.5ZM48.3035 36.5L48.0239 36.9145L48.3035 36.5ZM29.3036 37.1394L29.796 37.2264L29.3036 37.1394ZM42.8036 20L42.3271 19.8484L42.8036 20ZM42.3035 9.5L42.7869 9.37202L42.5062 8.31186L41.8899 9.21905L42.3035 9.5ZM37.8035 17.5L37.339 17.3148L37.8035 17.5ZM39.1571 62.6464C37.305 60.7943 34.3021 60.7943 32.45 62.6464L33.1571 63.3536C34.6187 61.892 36.9884 61.892 38.45 63.3536L39.1571 62.6464ZM32.45 62.6464C30.5979 64.4986 30.5979 67.5014 32.45 69.3536L33.1571 68.6464C31.6955 67.1849 31.6955 64.8151 33.1571 63.3536L32.45 62.6464ZM32.45 69.3536C34.3021 71.2057 37.305 71.2057 39.1571 69.3536L38.45 68.6464C36.9884 70.108 34.6187 70.108 33.1571 68.6464L32.45 69.3536ZM39.1571 69.3536C41.0092 67.5014 41.0092 64.4986 39.1571 62.6464L38.45 63.3536C39.9116 64.8151 39.9116 67.1849 38.45 68.6464L39.1571 69.3536ZM32.4362 69.3391C34.7939 71.8934 36.671 73.6765 40.1913 74.4872L40.4158 73.5128C37.2033 72.7729 35.4995 71.1835 33.171 68.6609L32.4362 69.3391ZM40.1913 74.4872C41.8428 74.8676 44.0238 74.4869 45.6571 72.8536L44.95 72.1464C43.5833 73.5131 41.7643 73.8233 40.4158 73.5128L40.1913 74.4872ZM36.782 16.6453C37.626 13.8659 39.2215 11.037 40.6207 8.88849C41.3181 7.81763 41.962 6.92277 42.4312 6.29618C42.6657 5.98299 42.8564 5.7371 42.9879 5.57007C43.0537 5.48656 43.1047 5.42278 43.139 5.38018C43.1561 5.35888 43.1691 5.34288 43.1777 5.33235C43.182 5.32709 43.1851 5.3232 43.1872 5.3207C43.1882 5.31944 43.189 5.31854 43.1894 5.31799C43.1896 5.31771 43.1898 5.31752 43.1899 5.31742C43.1899 5.31737 43.1899 5.31737 43.1899 5.31734C43.1899 5.31735 43.1899 5.31739 42.8036 5C42.4172 4.68261 42.4171 4.68269 42.4171 4.68279C42.417 4.68286 42.4169 4.68298 42.4168 4.68311C42.4166 4.68336 42.4163 4.6837 42.416 4.68413C42.4153 4.68499 42.4143 4.68621 42.413 4.68777C42.4104 4.69089 42.4067 4.69542 42.4019 4.70132C42.3923 4.71312 42.3783 4.73042 42.3601 4.75306C42.3236 4.79832 42.2704 4.86489 42.2024 4.95132C42.0662 5.12416 41.8706 5.37652 41.6308 5.69679C41.1513 6.33713 40.4943 7.25009 39.7827 8.34278C38.364 10.5214 36.7095 13.4425 35.8251 16.3547L36.782 16.6453ZM42.8036 5C42.3455 5.20048 42.3455 5.20041 42.3455 5.20036C42.3455 5.20039 42.3455 5.20037 42.3455 5.20042C42.3455 5.2005 42.3456 5.2007 42.3457 5.201C42.346 5.20161 42.3464 5.20264 42.3471 5.2041C42.3483 5.20702 42.3503 5.21165 42.353 5.21794C42.3585 5.23054 42.3667 5.24982 42.3775 5.27558C42.3992 5.3271 42.4314 5.40448 42.4723 5.50596C42.5543 5.70893 42.6713 6.00815 42.8102 6.38936C43.0882 7.15205 43.4531 8.24138 43.7993 9.54352C44.4932 12.1543 45.1035 15.5909 44.8055 18.9559L45.8016 19.0441C46.1141 15.516 45.4743 11.9525 44.7657 9.28663C44.4105 7.95042 44.036 6.83221 43.7498 6.04695C43.6067 5.65418 43.4855 5.34432 43.3997 5.13171C43.3568 5.0254 43.3227 4.94337 43.2991 4.88741C43.2873 4.85944 43.2782 4.83797 43.2719 4.82325C43.2687 4.81589 43.2662 4.81021 43.2645 4.80625C43.2637 4.80427 43.263 4.80272 43.2625 4.80159C43.2623 4.80103 43.2621 4.80058 43.2619 4.80023C43.2618 4.80006 43.2618 4.79988 43.2617 4.7998C43.2617 4.79965 43.2616 4.79952 42.8036 5ZM30.3749 51.2573C30.9722 52.2527 31.8221 53.4901 32.8073 54.5691C33.7818 55.6365 34.9383 56.6045 36.157 56.978L36.4501 56.022C35.4916 55.7282 34.484 54.9225 33.5458 53.8949C32.6181 52.8789 31.8067 51.6999 31.2324 50.7427L30.3749 51.2573ZM47.7631 52.197C48.5474 50.3667 48.887 48.1383 48.667 46.0465C48.4474 43.9583 47.6622 41.9463 46.1305 40.6218L45.4764 41.3782C46.7549 42.4838 47.4696 44.2218 47.6725 46.1511C47.875 48.0768 47.5595 50.1333 46.8439 51.803L47.7631 52.197ZM46.1305 40.6218C45.1552 39.7783 43.76 39.5221 42.5493 39.5164C41.3382 39.5107 40.1738 39.7558 39.5799 40.0528L40.0271 40.9472C40.4332 40.7442 41.4267 40.5111 42.5446 40.5164C43.663 40.5216 44.7678 40.7654 45.4764 41.3782L46.1305 40.6218ZM35.8039 46.1686C35.7601 47.33 36.1697 48.615 36.561 49.5712C36.76 50.0574 36.9612 50.4749 37.1128 50.7713C37.1887 50.9197 37.2525 51.0382 37.2977 51.1204C37.3203 51.1615 37.3382 51.1935 37.3508 51.2156C37.3571 51.2267 37.362 51.2353 37.3655 51.2414C37.3672 51.2444 37.3686 51.2468 37.3696 51.2485C37.3701 51.2493 37.3705 51.25 37.3708 51.2506C37.371 51.2508 37.3711 51.2511 37.3712 51.2513C37.3712 51.2513 37.3713 51.2514 37.3713 51.2515C37.3714 51.2516 37.3714 51.2517 37.8035 51C38.2355 50.7483 38.2356 50.7484 38.2356 50.7484C38.2356 50.7484 38.2356 50.7485 38.2356 50.7485C38.2356 50.7485 38.2356 50.7485 38.2356 50.7484C38.2355 50.7483 38.2353 50.748 38.2351 50.7476C38.2346 50.7467 38.2337 50.7451 38.2324 50.743C38.2299 50.7386 38.226 50.7317 38.2207 50.7225C38.2102 50.7039 38.1943 50.6756 38.1739 50.6385C38.133 50.5641 38.074 50.4545 38.0031 50.3159C37.8611 50.0382 37.6725 49.6467 37.4865 49.1924C37.1081 48.2678 36.7677 47.1465 36.8032 46.2064L35.8039 46.1686ZM37.8035 51C38.1388 50.6291 38.1389 50.6292 38.1389 50.6292C38.1389 50.6292 38.1389 50.6292 38.1389 50.6292C38.1389 50.6292 38.1389 50.6292 38.1388 50.6291C38.1386 50.6289 38.1382 50.6286 38.1377 50.6281C38.1366 50.6271 38.1349 50.6256 38.1325 50.6234C38.1277 50.619 38.1203 50.6122 38.1105 50.6031C38.0907 50.5849 38.0612 50.5574 38.023 50.5213C37.9466 50.4491 37.8358 50.3428 37.7005 50.2079C37.4295 49.9377 37.0618 49.555 36.6751 49.1049C35.8874 48.1884 35.075 47.0543 34.7838 46.0484L33.8232 46.3266C34.1783 47.5529 35.116 48.825 35.9167 49.7567C36.3241 50.2308 36.7102 50.6326 36.9945 50.916C37.1368 51.0579 37.254 51.1706 37.3362 51.2482C37.3773 51.287 37.4097 51.3172 37.4321 51.3378C37.4433 51.3482 37.452 51.3562 37.458 51.3617C37.4611 51.3645 37.4634 51.3666 37.4651 51.3681C37.466 51.3689 37.4666 51.3695 37.4671 51.37C37.4674 51.3702 37.4676 51.3704 37.4678 51.3705C37.4679 51.3706 37.4679 51.3707 37.468 51.3707C37.4681 51.3708 37.4681 51.3709 37.8035 51ZM39.9703 35.9714C41.5091 35.4269 42.8577 35.224 44.1415 35.3682C45.4234 35.5123 46.6784 36.0067 48.0239 36.9145L48.5832 36.0855C47.1344 35.108 45.7283 34.5402 44.2531 34.3745C42.7798 34.209 41.2756 34.4487 39.6367 35.0286L39.9703 35.9714ZM36.157 56.978C39.1122 57.8838 41.7472 57.9151 43.8999 56.7682L43.4297 55.8857C41.6022 56.8593 39.27 56.8863 36.4501 56.022L36.157 56.978ZM43.8999 56.7682C45.5341 55.8976 46.8274 54.3802 47.7631 52.197L46.8439 51.803C45.9742 53.8324 44.8156 55.1473 43.4297 55.8857L43.8999 56.7682ZM45.6571 72.8536C47.2491 71.2616 47.5033 68.8616 47.0785 66.0574C46.6514 63.2385 45.5152 59.8597 44.1333 56.1523L43.1963 56.5016C44.5795 60.2124 45.68 63.5027 46.0898 66.2071C46.5017 68.9262 46.1927 70.9037 44.95 72.1464L45.6571 72.8536ZM48.0239 36.9145C49.2646 37.7516 50.0858 39.1504 50.4862 40.8788C50.8863 42.6064 50.8561 44.628 50.4224 46.6396C49.5503 50.6853 47.0907 54.5259 43.4913 55.8581L43.8383 56.7959C47.8776 55.301 50.4874 51.0836 51.4 46.8503C51.8587 44.7224 51.8996 42.5493 51.4604 40.6531C51.0213 38.7578 50.0925 37.1038 48.5832 36.0855L48.0239 36.9145ZM43.28 20.1516C43.9379 18.0834 43.7978 15.3638 43.5159 13.2179C43.3736 12.1338 43.1918 11.1748 43.0458 10.4867C42.9727 10.1424 42.9084 9.86527 42.8621 9.67354C42.839 9.57766 42.8204 9.50309 42.8075 9.45209C42.801 9.42659 42.796 9.40698 42.7925 9.39354C42.7908 9.38682 42.7894 9.38164 42.7885 9.37804C42.788 9.37624 42.7876 9.37484 42.7874 9.37383C42.7872 9.37333 42.7871 9.37293 42.787 9.37262C42.787 9.37247 42.787 9.37232 42.7869 9.37224C42.7869 9.37212 42.7869 9.37202 42.3035 9.5C41.8202 9.62798 41.8202 9.62793 41.8202 9.62791C41.8202 9.62793 41.8202 9.62793 41.8202 9.62798C41.8202 9.62808 41.8203 9.62827 41.8204 9.62857C41.8205 9.62916 41.8208 9.63015 41.8211 9.63154C41.8219 9.6343 41.823 9.63863 41.8245 9.6445C41.8275 9.65623 41.8321 9.67409 41.8382 9.69779C41.8502 9.74521 41.8678 9.81599 41.89 9.9079C41.9343 10.0917 41.9966 10.3599 42.0676 10.6943C42.2097 11.3637 42.3863 12.2962 42.5245 13.3481C42.8037 15.4742 42.9136 18.0046 42.3271 19.8484L43.28 20.1516ZM42.3035 9.5C41.8899 9.21905 41.8899 9.2191 41.8899 9.21916C41.8898 9.21921 41.8898 9.21929 41.8897 9.21938C41.8896 9.21956 41.8894 9.21981 41.8892 9.22013C41.8888 9.22077 41.8881 9.22169 41.8873 9.2229C41.8857 9.22531 41.8833 9.22883 41.8802 9.23346C41.8739 9.2427 41.8647 9.25633 41.8527 9.27417C41.8287 9.30983 41.7936 9.36231 41.7484 9.43012C41.6581 9.56574 41.528 9.76276 41.3678 10.0094C41.0475 10.5026 40.6065 11.195 40.1237 11.9924C39.162 13.5804 38.0189 15.6097 37.339 17.3148L38.2679 17.6852C38.9157 16.0607 40.0226 14.0899 40.9791 12.5104C41.4553 11.724 41.8904 11.0407 42.2064 10.5541C42.3644 10.3109 42.4924 10.117 42.5808 9.98425C42.625 9.91785 42.6593 9.86673 42.6824 9.83236C42.694 9.81517 42.7028 9.80217 42.7086 9.79354C42.7115 9.78923 42.7137 9.78601 42.7151 9.7839C42.7159 9.78285 42.7164 9.78207 42.7167 9.78158C42.7169 9.78133 42.717 9.78116 42.7171 9.78105C42.7171 9.781 42.7171 9.78097 42.7171 9.78095C42.7172 9.78094 42.7171 9.78095 42.3035 9.5ZM29.796 37.2264C30.2128 34.8672 31.6539 32.8752 33.0295 31.4535C33.7134 30.7468 34.371 30.1914 34.857 29.8133C35.0997 29.6244 35.299 29.4803 35.4363 29.3842C35.505 29.3362 35.5582 29.3001 35.5935 29.2765C35.6112 29.2647 35.6244 29.2561 35.6328 29.2505C35.637 29.2478 35.6401 29.2458 35.6419 29.2446C35.6428 29.244 35.6434 29.2436 35.6437 29.2435C35.6439 29.2434 35.6439 29.2433 35.6439 29.2433C35.6439 29.2433 35.6438 29.2434 35.6438 29.2434C35.6438 29.2434 35.6437 29.2435 35.3743 28.8223C35.1049 28.401 35.1048 28.4011 35.1046 28.4012C35.1045 28.4013 35.1043 28.4014 35.1042 28.4015C35.1038 28.4017 35.1034 28.402 35.103 28.4023C35.102 28.4029 35.1007 28.4037 35.0991 28.4047C35.096 28.4068 35.0915 28.4097 35.0859 28.4133C35.0747 28.4207 35.0587 28.4312 35.0381 28.4449C34.997 28.4724 34.9379 28.5125 34.863 28.5649C34.7132 28.6697 34.5003 28.8238 34.2429 29.0241C33.7287 29.4242 33.0343 30.0106 32.3109 30.7582C30.8721 32.2451 29.2778 34.4117 28.8112 37.0524L29.796 37.2264ZM35.3743 28.8223C35.6735 29.2228 35.6736 29.2228 35.6737 29.2227C35.6738 29.2226 35.6739 29.2225 35.6741 29.2224C35.6743 29.2222 35.6747 29.2219 35.6752 29.2216C35.6761 29.2209 35.6774 29.2199 35.679 29.2187C35.6823 29.2162 35.687 29.2127 35.6932 29.208C35.7054 29.1988 35.7233 29.1852 35.7465 29.1675C35.7928 29.132 35.8603 29.08 35.9462 29.0125C36.1181 28.8776 36.3642 28.6808 36.6633 28.4314C37.261 27.9331 38.0727 27.223 38.9286 26.3761C40.6225 24.6999 42.5579 22.4217 43.28 20.1516L42.3271 19.8484C41.6838 21.8705 39.9046 24.0035 38.2252 25.6653C37.3944 26.4874 36.6048 27.1782 36.0229 27.6633C35.7322 27.9057 35.4938 28.0964 35.3288 28.2259C35.2463 28.2907 35.1821 28.3402 35.1389 28.3732C35.1174 28.3897 35.101 28.4021 35.0903 28.4102C35.0849 28.4143 35.0809 28.4173 35.0783 28.4192C35.0771 28.4202 35.0761 28.4209 35.0756 28.4213C35.0753 28.4215 35.0751 28.4216 35.075 28.4217C35.075 28.4217 35.075 28.4217 35.075 28.4217C35.075 28.4217 35.075 28.4217 35.3743 28.8223ZM35.8715 28.7694C35.4284 24.5976 35.6107 20.5023 36.782 16.6453L35.8251 16.3547C34.6049 20.373 34.424 24.6093 34.8771 28.8751L35.8715 28.7694ZM37.339 17.3148C36.4812 19.4662 35.867 22.3398 35.4681 24.6513C35.2677 25.812 35.1201 26.8402 35.0226 27.5784C34.9738 27.9476 34.9375 28.2445 34.9134 28.4496C34.9013 28.5521 34.8923 28.6317 34.8862 28.6858C34.8832 28.7129 34.8809 28.7336 34.8794 28.7477C34.8787 28.7547 34.8781 28.7601 34.8777 28.7637C34.8775 28.7656 34.8773 28.767 34.8772 28.768C34.8772 28.7685 34.8771 28.7688 34.8771 28.7691C34.8771 28.7692 34.8771 28.7694 34.8771 28.7694C34.8771 28.7695 34.8771 28.7696 35.3743 28.8223C35.8715 28.8749 35.8715 28.8749 35.8715 28.8749C35.8715 28.8749 35.8715 28.8748 35.8715 28.8748C35.8715 28.8746 35.8716 28.8743 35.8716 28.874C35.8717 28.8732 35.8718 28.872 35.872 28.8704C35.8723 28.8672 35.8729 28.8623 35.8736 28.8557C35.875 28.8426 35.8772 28.8228 35.8801 28.7967C35.8859 28.7445 35.8947 28.6669 35.9065 28.5665C35.9302 28.3657 35.9659 28.0734 36.014 27.7094C36.1102 26.981 36.2559 25.9662 36.4535 24.8214C36.8504 22.5219 37.4508 19.7345 38.2679 17.6852L37.339 17.3148ZM39.6367 35.0286C38.5013 35.4304 37.4915 36.0232 36.6336 36.7601L37.2852 37.5187C38.0495 36.8622 38.9515 36.3318 39.9703 35.9714L39.6367 35.0286ZM36.4759 37.2667C36.8705 38.7664 37.3123 40.2571 37.784 41.7306L38.7364 41.4257C38.2691 39.9659 37.8324 38.4922 37.4429 37.0122L36.4759 37.2667ZM38.6042 41.941C39.1377 41.4352 39.6736 41.1239 40.0271 40.9472L39.5799 40.0528C39.1688 40.2583 38.5424 40.6216 37.9162 41.2153L38.6042 41.941ZM37.9162 41.2153C36.8954 42.1831 35.8953 43.7457 35.8039 46.1686L36.8032 46.2064C36.8837 44.0736 37.751 42.7499 38.6042 41.941L37.9162 41.2153ZM44.1333 56.1523C42.4539 51.6469 40.4058 46.6409 38.7364 41.4257L37.784 41.7306C39.4628 46.9752 41.5316 52.0358 43.1963 56.5016L44.1333 56.1523ZM34.7838 46.0484C33.8513 42.8278 34.9103 39.5586 37.2852 37.5187L36.6336 36.7601C33.9657 39.0517 32.7803 42.7245 33.8232 46.3266L34.7838 46.0484ZM31.2683 41.1845C32.4795 38.134 34.377 35.8039 36.4306 33.6579L35.7081 32.9665C33.6194 35.1492 31.6198 37.5894 30.3389 40.8155L31.2683 41.1845ZM36.5597 33.2143C36.2631 31.7291 36.0282 30.245 35.8715 28.7694L34.8771 28.8751C35.0374 30.3847 35.2773 31.8991 35.579 33.4101L36.5597 33.2143ZM28.8112 37.0524C28.505 38.7856 28.4076 41.3825 28.5963 43.9523C28.7842 46.5104 29.2608 49.1229 30.1507 50.8484L31.0394 50.39C30.2452 48.8498 29.779 46.4038 29.5936 43.8791C29.4091 41.3661 29.5081 38.856 29.796 37.2264L28.8112 37.0524ZM31.0424 50.3958C30.4584 49.2263 30.2116 47.6768 30.2686 46.022C30.3254 44.3727 30.6829 42.6589 31.2683 41.1845L30.3389 40.8155C29.7102 42.399 29.3299 44.2262 29.2692 45.9876C29.2087 47.7437 29.4647 49.4747 30.1477 50.8426L31.0424 50.3958ZM31.2354 50.748C31.17 50.6358 31.1046 50.5163 31.0394 50.39L30.1507 50.8484C30.223 50.9886 30.2967 51.1234 30.3718 51.252L31.2354 50.748ZM30.1477 50.8426C30.2186 50.9846 30.2943 51.123 30.3749 51.2573L31.2324 50.7427C31.1656 50.6315 31.1023 50.5158 31.0424 50.3958L30.1477 50.8426ZM37.4429 37.0122C37.1105 35.7489 36.8127 34.4814 36.5597 33.2143L35.579 33.4101C35.8365 34.6993 36.139 35.9865 36.4759 37.2667L37.4429 37.0122ZM44.8055 18.9559C44.2376 25.3678 39.8671 28.6205 35.7081 32.9665L36.4306 33.6579C40.4417 29.4664 45.1944 25.9001 45.8016 19.0441L44.8055 18.9559Z" fill="#D9D9D9"/>
</svg>
